<?xml version="1.0" encoding="UTF-8"?>
<svg version="1.1" xmlns="http://www.w3.org/2000/svg" width="128" height="128">
<path d="M0 0 C2.05318288 1.15595865 3.93225353 2.47724068 5.8671875 3.8203125 C9.3898268 5.76873204 13.03582312 5.89906031 17 6 C16.49894824 9.20673125 15.62512625 11.96345536 14.375 14.9375 C12.94747575 18.64626398 12.739348 21.12799743 14 25 C15.91731521 27.52737004 16.91505409 27.9716847 20 29 C20 31.31 20 33.62 20 36 C25.73020232 39.13329556 30.85210085 40.87355707 37.25 42.0625 C47.37321712 43.95646791 47.37321712 43.95646791 50 47 C51.17376411 49.62148147 51.97351802 52.30086127 52.75 55.0625 C52.97042969 55.79533203 53.19085938 56.52816406 53.41796875 57.28320312 C55 62.63361316 55 62.63361316 55 65 C54.154375 64.979375 53.30875 64.95875 52.4375 64.9375 C47.86112904 66.35201466 46.52133448 68.79802117 43.90625 72.67578125 C41.60294381 75.48411565 39.02696995 77.00197533 36 79 C33.88115968 80.92797519 31.91103023 82.98711014 29.9375 85.0625 C24.56727707 90.70776636 24.56727707 90.70776636 21.1640625 92.4609375 C18.66682584 93.86034846 18.66682584 93.86034846 18.43359375 97.00390625 C18.43552734 98.76541016 18.43552734 98.76541016 18.4375 100.5625 C17.98470498 111.85915519 13.73356413 119.11018218 7 128 C4.39982699 127.64326895 3.29358084 127.37218847 1.63867188 125.27416992 C-1.25676538 119.75217471 -3.54706492 114.23088827 -5.5 108.3125 C-6.09223831 106.5385571 -6.68599431 104.76512018 -7.28125 102.9921875 C-7.56871094 102.13592773 -7.85617188 101.27966797 -8.15234375 100.39746094 C-8.89195652 98.30558382 -9.70063237 96.28752329 -10.59375 94.2578125 C-14.81036457 84.30191698 -14.13294874 75.5218408 -13 65 C-13.74765625 65.11859375 -14.4953125 65.2371875 -15.265625 65.359375 C-23.28434505 66.40894569 -23.28434505 66.40894569 -26.625 64.5 C-28.36200469 61.34180965 -28.72533102 58.5706968 -29 55 C-23.375 53 -23.375 53 -20 53 C-20.38414063 52.25234375 -20.76828125 51.5046875 -21.1640625 50.734375 C-21.64617188 49.74953125 -22.12828125 48.7646875 -22.625 47.75 C-23.11226562 46.77546875 -23.59953125 45.8009375 -24.1015625 44.796875 C-25 42 -25 42 -24.2890625 39.6796875 C-22.45612289 37.29131165 -20.94008541 37.40092074 -18 37 C-13.61032428 35.86981024 -13.61032428 35.86981024 -10.1875 33.0625 C-8.86245592 30.91954969 -8.86245592 30.91954969 -8 28 C-6.37667033 26.61423077 -4.71275535 25.27358732 -3 24 C-3.26656572 21.06556598 -3.26656572 21.06556598 -4 18 C-4.99 17.34 -5.98 16.68 -7 16 C-7.625 12.875 -7.625 12.875 -8 9 C-8.18334693 7.52031281 -8.37077771 6.04112532 -8.5625 4.5625 C-8.706875 3.386875 -8.85125 2.21125 -9 1 C-5.82912985 -0.58543507 -3.52009516 -0.34065437 0 0 Z " fill="#EEE5D2" transform="translate(37,0)"/>
<path d="M0 0 C2.05318288 1.15595865 3.93225353 2.47724068 5.8671875 3.8203125 C9.3898268 5.76873204 13.03582312 5.89906031 17 6 C16.49894824 9.20673125 15.62512625 11.96345536 14.375 14.9375 C12.94747575 18.64626398 12.739348 21.12799743 14 25 C15.91731521 27.52737004 16.91505409 27.9716847 20 29 C20 31.31 20 33.62 20 36 C25.73020232 39.13329556 30.85210085 40.87355707 37.25 42.0625 C47.01653264 43.88973527 47.01653264 43.88973527 50 47 C51.046875 48.9375 51.046875 48.9375 51.75 51 C51.99234375 51.680625 52.2346875 52.36125 52.484375 53.0625 C53 55 53 55 53 58 C26.27 58 -0.46 58 -28 58 C-28.33 58.66 -28.66 59.32 -29 60 C-29 58.35 -29 56.7 -29 55 C-23.375 53 -23.375 53 -20 53 C-20.38414063 52.25234375 -20.76828125 51.5046875 -21.1640625 50.734375 C-21.64617188 49.74953125 -22.12828125 48.7646875 -22.625 47.75 C-23.11226562 46.77546875 -23.59953125 45.8009375 -24.1015625 44.796875 C-25 42 -25 42 -24.2890625 39.6796875 C-22.45612289 37.29131165 -20.94008541 37.40092074 -18 37 C-13.61032428 35.86981024 -13.61032428 35.86981024 -10.1875 33.0625 C-8.86245592 30.91954969 -8.86245592 30.91954969 -8 28 C-6.37667033 26.61423077 -4.71275535 25.27358732 -3 24 C-3.26656572 21.06556598 -3.26656572 21.06556598 -4 18 C-4.99 17.34 -5.98 16.68 -7 16 C-7.625 12.875 -7.625 12.875 -8 9 C-8.18334693 7.52031281 -8.37077771 6.04112532 -8.5625 4.5625 C-8.706875 3.386875 -8.85125 2.21125 -9 1 C-5.82912985 -0.58543507 -3.52009516 -0.34065437 0 0 Z " fill="#F38C2D" transform="translate(37,0)"/>
<path d="M0 0 C11.55 0 23.1 0 35 0 C33.35 1.32 31.7 2.64 30 4 C29.32751436 7.15377274 29.32751436 7.15377274 29.4375 10.625 C28.98284291 21.88650646 24.71157684 29.13921035 18 38 C15.41064717 37.64283605 14.2962752 37.37454867 12.64526367 35.28735352 C9.68557673 29.64403512 7.34066564 23.97579724 5.3125 17.9375 C4.87067383 16.6680957 4.87067383 16.6680957 4.41992188 15.37304688 C2.66489217 10.25782547 1.32208705 5.28834819 0 0 Z " fill="#44AE5A" transform="translate(26,90)"/>
<path d="M0 0 C4.01648005 0.71722858 6.30718325 2.13304546 9.5 4.625 C8.21700242 7.48707152 6.969364 9.6495088 4.5 11.625 C3.51 11.625 2.52 11.625 1.5 11.625 C1.17 15.255 0.84 18.885 0.5 22.625 C-0.82 22.955 -2.14 23.285 -3.5 23.625 C-3.5 26.265 -3.5 28.905 -3.5 31.625 C-4.82 31.625 -6.14 31.625 -7.5 31.625 C-8.03190541 30.19156 -8.55015258 28.75304633 -9.0625 27.3125 C-9.35253906 26.51199219 -9.64257812 25.71148437 -9.94140625 24.88671875 C-10.5 22.625 -10.5 22.625 -9.5 19.625 C-11.0778125 19.8415625 -11.0778125 19.8415625 -12.6875 20.0625 C-16.5 19.625 -16.5 19.625 -18.078125 18.171875 C-20.29744193 15.13625758 -21.5 13.46519936 -21.5 9.625 C-20.38625 10.12 -20.38625 10.12 -19.25 10.625 C-16.36116688 11.85282871 -16.36116688 11.85282871 -12.5 11.625 C-11.44410931 9.99316893 -10.4563874 8.31707001 -9.5 6.625 C-6.66517118 2.91189599 -4.69606109 0.83858234 0 0 Z " fill="#F38929" transform="translate(110.5,28.375)"/>
<path d="M0 0 C1.64221088 3.28442177 1.99342139 5.13595798 1.8125 8.875 C1.64940841 13.20508182 3.31428157 15.12722696 5.9375 18.40625 C7 20 7 20 7.0625 22.6875 C5.7966474 25.44259095 4.20054812 26.92889589 2 29 C1.2884375 30.2375 1.2884375 30.2375 0.5625 31.5 C-1.30506503 34.48810405 -3.01447389 36.12536733 -6 38 C-9.3125 38.25 -9.3125 38.25 -12 38 C-12 37.34 -12 36.68 -12 36 C-10.33333333 34.33333333 -8.66666667 32.66666667 -7 31 C-6.67 30.01 -6.34 29.02 -6 28 C-4.37667033 26.61423077 -2.71275535 25.27358732 -1 24 C-1.26656572 21.06556598 -1.26656572 21.06556598 -2 18 C-2.99 17.34 -3.98 16.68 -5 16 C-5.625 12.875 -5.625 12.875 -6 9 C-6.18334693 7.52031281 -6.37077771 6.04112532 -6.5625 4.5625 C-6.706875 3.386875 -6.85125 2.21125 -7 1 C-4.53721199 -0.231394 -2.7204945 -0.07159196 0 0 Z " fill="#E37920" transform="translate(35,0)"/>
<path d="M0 0 C2.09765625 0.69921875 2.09765625 0.69921875 4.72265625 2.76171875 C6.69972742 6.9854617 6.19295158 9.17199806 5.09765625 13.69921875 C2.96445102 16.48729853 1.16365298 17.2294581 -2.27734375 17.69921875 C-5.92639025 17.97899882 -6.72363987 17.81227631 -9.96484375 15.76171875 C-12.08666666 12.40786964 -12.66340167 10.53774504 -12.375 6.640625 C-10.74356521 -0.06039228 -5.97344628 -1.08698772 0 0 Z " fill="#6098C5" transform="translate(49.90234375,65.30078125)"/>
<path d="M0 0 C2.31 0 4.62 0 7 0 C7.23074219 0.58265625 7.46148437 1.1653125 7.69921875 1.765625 C9.60390106 6.55368014 11.55247457 11.31762179 13.5625 16.0625 C15.62059351 20.97659405 17.40358984 25.91953252 19 31 C19.33 31.99 19.66 32.98 20 34 C19.34 34.99 18.68 35.98 18 37 C15.41230846 36.64272233 14.29650443 36.37435755 12.64526367 34.28955078 C9.67319445 28.62698336 7.33805801 22.93783195 5.3125 16.875 C5.01794922 16.02035156 4.72339844 15.16570312 4.41992188 14.28515625 C2.80420774 9.55783084 1.32492479 4.81672166 0 0 Z " fill="#2E9842" transform="translate(26,91)"/>
<path d="M0 0 C-0.0721875 0.75023438 -0.144375 1.50046875 -0.21875 2.2734375 C-1.95954845 14.49464545 -1.95954845 14.49464545 1 26 C-1.64 26 -4.28 26 -7 26 C-8.9179653 21.22721711 -9.14187554 17.54735081 -8.75 12.4375 C-8.66234375 11.15746094 -8.5746875 9.87742187 -8.484375 8.55859375 C-8.04241101 5.3115841 -7.56124957 2.87120212 -6 0 C-3 -1 -3 -1 0 0 Z " fill="#E2D5BD" transform="translate(32,64)"/>
<path d="M0 0 C2.00720923 0.28674418 4.0085944 0.61866701 6 1 C5.79632813 1.57621094 5.59265625 2.15242188 5.3828125 2.74609375 C4.90447694 5.56241637 5.49848582 6.59901427 6.875 9.0625 C8.1677445 11.41746463 9.14326941 13.42980824 10 16 C6.38026598 17.31626692 3.90432869 18 0 18 C0 18.66 0 19.32 0 20 C-2.31 20 -4.62 20 -7 20 C-6.505 18.515 -6.505 18.515 -6 17 C-2.04 16.505 -2.04 16.505 2 16 C1.61585937 15.25234375 1.23171875 14.5046875 0.8359375 13.734375 C0.35382812 12.74953125 -0.12828125 11.7646875 -0.625 10.75 C-1.11226562 9.77546875 -1.59953125 8.8009375 -2.1015625 7.796875 C-3 5 -3 5 -2.2109375 2.703125 C-1 1 -1 1 0 0 Z " fill="#E47A20" transform="translate(15,37)"/>
<path d="M0 0 C3.625 0.375 3.625 0.375 7 1 C8.33157895 6.44736842 8.33157895 6.44736842 6.875 8.875 C4.40522151 10.3568671 2.83386167 10.3633156 0 10 C-2 8 -2 8 -2.25 5 C-2 2 -2 2 0 0 Z " fill="#D3D6D0" transform="translate(44,69)"/>
<path d="M0 0 C0.845625 0.144375 1.69125 0.28875 2.5625 0.4375 C2.5625 1.0975 2.5625 1.7575 2.5625 2.4375 C0.5949413 4.29749285 -1.49305598 5.97140198 -3.58984375 7.68359375 C-5.68548169 9.39755081 -5.68548169 9.39755081 -6.4375 12.4375 C-8.4175 12.4375 -10.3975 12.4375 -12.4375 12.4375 C-10.78426816 6.37564992 -6.35324487 0.8085948 0 0 Z " fill="#E47A21" transform="translate(110.4375,28.5625)"/>
<path d="M0 0 C0.99 0.33 1.98 0.66 3 1 C2.66742188 1.56589844 2.33484375 2.13179688 1.9921875 2.71484375 C0.35526528 6.48492051 0.94265589 10.09596022 2 14 C3.87856267 16.1044206 3.87856267 16.1044206 6 17 C2.41151779 17.51264032 1.19487465 17.13857753 -1.8125 15 C-4.83134652 10.85986762 -4.72054088 9.04378616 -4 4 C-2 1.5 -2 1.5 0 0 Z " fill="#4E8AB4" transform="translate(42,66)"/>
<path d="M0 0 C1.98 0 3.96 0 6 0 C6 3.96 6 7.92 6 12 C4.68 12 3.36 12 2 12 C1.46809459 10.56656 0.94984742 9.12804633 0.4375 7.6875 C0.14746094 6.88699219 -0.14257812 6.08648437 -0.44140625 5.26171875 C-1 3 -1 3 0 0 Z " fill="#E47B20" transform="translate(101,48)"/>
<path d="M0 0 C2.75 -0.375 2.75 -0.375 6 0 C10 4.84210526 10 4.84210526 10 8 C6.38102827 8.32899743 4.60496861 8.44576634 1.625 6.25 C0 4 0 4 0 0 Z " fill="#E3D6BE" transform="translate(9,58)"/>
<path d="M0 0 C4.43843439 1.39493652 6.9434964 3.51898201 10 7 C10.33 7.99 10.66 8.98 11 10 C8.3125 10.4375 8.3125 10.4375 5 10 C2.85843477 7.94144118 1.29272676 5.67125398 0 3 C0 2.01 0 1.02 0 0 Z " fill="#E57A21" transform="translate(89,38)"/>
</svg>
